<?xml version="1.0" encoding="UTF-8" standalone="no"?>
<!DOCTYPE svg PUBLIC "-//W3C//DTD SVG 1.1//EN" "http://www.w3.org/Graphics/SVG/1.1/DTD/svg11.dtd">
<svg width="100%" height="100%" viewBox="0 0 1440 1440" version="1.1" xmlns="http://www.w3.org/2000/svg" xmlns:xlink="http://www.w3.org/1999/xlink" xml:space="preserve" xmlns:serif="http://www.serif.com/" style="fill-rule:evenodd;clip-rule:evenodd;stroke-linejoin:round;stroke-miterlimit:2;">
    <defs>
        <!-- 柔和的现代蓝灰渐变 -->
        <linearGradient id="bg-grad" x1="0%" y1="0%" x2="100%" y2="100%">
            <stop offset="0%" stop-color="#F5F7FA" />
            <stop offset="100%" stop-color="#E4E8F0" />
        </linearGradient>
        <!-- 主图形的立体微阴影 -->
        <filter id="gentle-shadow" x="-20%" y="-20%" width="140%" height="140%">
            <feDropShadow dx="0" dy="16" stdDeviation="20" flood-color="#000000" flood-opacity="0.06" />
            <feDropShadow dx="0" dy="4" stdDeviation="6" flood-color="#000000" flood-opacity="0.04" />
        </filter>
    </defs>
    <!-- 背景圆角矩形 -->
    <rect width="1440" height="1440" rx="300" fill="url(#bg-grad)"/>
    
    <!-- 应用了阴影滤镜的图标主图形 -->
    <g transform="matrix(1.032227,0,0,1.032227,209,193)" filter="url(#gentle-shadow)">
        <path d="M126.543,9C133.536,9.23 176.397,10.639 208.64,39.141C223.632,52.394 460.969,363.964 623.384,558.795C630.996,551.121 640.239,545.179 647.78,537.437C669.773,514.857 690.005,490.611 711.891,467.927C752.623,425.71 770.185,413.489 775.873,409.53C837.76,366.464 977.949,386.52 979.103,504.318C979.447,539.372 983.003,902.211 976.096,942.501C966.914,996.07 851.484,1053.391 799.655,968.255C789.623,951.777 789.467,951.61 787.785,932.402C784.157,890.985 784.5,660.909 784.854,662.269C776.322,660.705 660.067,803.776 645.071,814.454C606.638,841.819 556.272,828.072 542.224,818.004C500.495,788.099 257.297,494.366 256.586,494.512C254.528,614.779 257.708,735.079 257.893,855.364C257.904,862.835 258.007,930.247 252.151,948.575C249.937,955.503 235.741,980.739 225.133,990.085C224.144,990.648 224.213,990.574 223.339,991.31C222.594,991.936 222.633,991.884 215.443,997.418C205.681,1004.803 180.88,1012.412 173.446,1013.145C162.428,1014.231 96.977,1013.286 86.802,1011.108C30.41,999.038 9.658,941.494 9.581,915.062C9.397,851.616 7.488,194.243 11.694,121.986C12.446,109.065 39.71,24.155 122.453,10.17C126.277,9.208 126.211,9.074 126.543,9Z" style="fill:rgb(251,132,2);fill-opacity:0.99;"/>
        <path d="M119.812,787.1C91.867,760.226 87.775,761.573 88.547,751.173C89.702,735.628 109.627,723.577 123.11,732.272C131.798,737.875 217.555,809.925 220.565,816.772C227.815,833.262 216.394,843.089 214.67,844.572C206.679,851.448 122.837,923.588 111.094,926.035C105.361,927.23 86.641,912.282 88.291,900.126C89.451,891.577 92.185,892.857 164.735,828.628C161.05,824.59 164.348,820.865 119.812,787.1Z" style="fill:white;"/>
        <g transform="matrix(0.96878,0,0,0.96878,-237.350993,-189.880795)">
            <path d="M751,1163.227L751,1169.773C751,1184.8 738.8,1197 723.773,1197L596.227,1197C581.2,1197 569,1184.8 569,1169.773L569,1163.227C569,1148.2 581.2,1136 596.227,1136L723.773,1136C738.8,1136 751,1148.2 751,1163.227Z" style="fill:rgb(68,148,109);"/>
        </g>
        <g transform="matrix(0.515555,-0,0,0.515555,631.623484,-35.501006)">
            <path d="M442.458,3.07C465.25,1.026 480.997,17.244 479.761,39.517C479.29,47.997 456.737,102.215 449.828,121.622C447.698,127.604 325.698,447.074 316.035,473.296C308.718,493.153 308.146,492.826 300.859,512.634C289.707,542.947 256.753,539.284 245.117,525.871C227.452,505.509 237.279,492.231 246.075,468.345C247.693,463.952 260.595,428.913 266.714,413.584C273.017,397.791 386.922,98.127 387.273,97.406C387.491,96.957 403.157,55.639 403.271,55.405C412.15,37.113 413.698,6.313 442.458,3.07Z" style="fill:rgb(68,148,109);fill-opacity:1;"/>
        </g>
        <g transform="matrix(0.515555,0,0,0.515555,649.061516,-34.532227)">
            <path d="M549.542,435.929C526.888,438.834 506.015,414.601 515.955,389.716C518.665,382.93 519.126,382.975 614.551,287.551C631.413,270.689 632.834,270.04 630.948,268.13C590.241,226.904 522.282,160.374 518.961,155.152C504.738,132.79 520.705,114.977 520.866,114.761C531.309,100.745 548.009,102.79 550.541,103.1C564.191,104.772 564.271,106.344 614.463,156.537C705.748,247.822 706.052,247.616 709.097,252.747C722.045,274.563 704.902,292.116 702.538,294.537C696.22,301.007 569.097,428.028 569.079,428.042C559.822,435.116 551.222,435.796 549.542,435.929Z" style="fill:rgb(68,148,109);fill-opacity:1;"/>
        </g>
        <g transform="matrix(0.515555,0,0,0.515555,614.185452,-35.501006)">
            <path d="M2.092,269.499C2.208,267.766 2.905,257.375 8.978,248.906C9.57,248.08 132.153,125.587 142.874,114.874C166.089,91.677 189.224,106.28 196.725,117.358C212.37,140.461 192.995,159.847 190.422,162.422C153.134,199.733 153.086,199.548 115.817,236.817C86.419,266.215 86.274,266.046 83.871,268.744C82.914,269.819 83.644,270.212 95.716,282.284C104.004,290.572 103.942,290.492 112.164,298.829C174.57,362.1 196.18,380.156 200.041,390.695C211.975,423.266 172.092,453.847 142.617,424.383C106.357,388.139 106.541,388.049 70.246,351.754C6.585,288.093 3.053,288.436 2.092,269.499Z" style="fill:rgb(68,148,109);fill-opacity:1;"/>
        </g>
    </g>
</svg>
