<svg width="449" height="165" viewBox="0 0 449 165" fill="none" xmlns="http://www.w3.org/2000/svg">
<path d="M209.179 0.772461L251.53 82.7556L208.987 164.772H251.358L293.882 82.7891L251.511 0.772461H209.179Z" fill="black"/>
<path d="M0.329102 0.772548V37.4433H51.4707V164.772H88.2926V37.4433H139.434V0.772548H0.329102Z" fill="black"/>
<path fill-rule="evenodd" clip-rule="evenodd" d="M314.338 0.772461H397.188C425.432 0.772461 448.329 23.5753 448.329 51.7041C448.329 79.8329 425.432 102.636 397.188 102.636H351.16V164.772H314.338V0.772461ZM351.16 65.965V37.4433H397.188C405.096 37.4433 411.507 43.8281 411.507 51.7041C411.507 59.5802 405.096 65.965 397.188 65.965H351.16Z" fill="black"/>
<rect x="158.996" y="0.772461" width="37" height="164" fill="#6D49FF"/>
</svg>
